<svg width="32" height="27" viewBox="0 0 32 27" fill="none" xmlns="http://www.w3.org/2000/svg">
<path d="M23.4539 8.06919C23.4539 7.77341 23.3198 7.48974 23.0812 7.28059C22.8425 7.07144 22.5188 6.95394 22.1812 6.95394L11.9994 6.89818C11.6618 6.89818 11.3381 7.01568 11.0994 7.22483C10.8608 7.43398 10.7267 7.71764 10.7267 8.01343C10.7267 8.30921 10.8608 8.59288 11.0994 8.80203C11.3381 9.01118 11.6618 9.12867 11.9994 9.12867H19.0758L8.5503 18.3741C8.43101 18.4778 8.33632 18.6011 8.27171 18.737C8.2071 18.8729 8.17383 19.0187 8.17383 19.1659C8.17383 19.3131 8.2071 19.4589 8.27171 19.5948C8.33632 19.7307 8.43101 19.8541 8.5503 19.9577C8.66862 20.0623 8.80938 20.1452 8.96447 20.2019C9.11957 20.2585 9.28592 20.2876 9.45394 20.2876C9.62195 20.2876 9.7883 20.2585 9.9434 20.2019C10.0985 20.1452 10.2393 20.0623 10.3576 19.9577L20.9085 10.7123V16.9354C20.9085 17.2312 21.0426 17.5149 21.2813 17.724C21.5199 17.9332 21.8437 18.0507 22.1812 18.0507C22.5188 18.0507 22.8425 17.9332 23.0812 17.724C23.3198 17.5149 23.4539 17.2312 23.4539 16.9354V8.06919Z" fill="#FDFDFD"/>
</svg>
