<svg width="26" height="28" viewBox="0 0 26 28" fill="none" xmlns="http://www.w3.org/2000/svg">
<path d="M12.3832 0.174619C12.5339 0.0624728 12.7168 0.0012797 12.905 1.98505e-05C13.0932 -0.00124 13.2769 0.0574997 13.4291 0.167619C15.7179 1.8243 18.5291 2.81014 20.8085 3.38064C21.9412 3.66415 22.9272 3.84148 23.6279 3.94765C23.97 3.99923 24.3132 4.04319 24.6573 4.07948L24.7101 4.08532H24.7242C24.944 4.10403 25.1488 4.2041 25.2979 4.36571C25.447 4.52733 25.5296 4.7387 25.5294 4.95799V12.8331C25.5294 18.4669 21.7581 25.2173 13.1814 27.9578C13.0059 28.0141 12.817 28.0141 12.6415 27.9578C4.08236 25.222 0 18.4833 0 12.5414V4.95799C0 4.50299 0.35213 4.12265 0.809899 4.08532H0.825158L0.881498 4.07948C0.93197 4.07482 1.00826 4.06782 1.10921 4.05615C1.30875 4.03398 1.60454 3.99898 1.97427 3.94648C2.71375 3.84031 3.75018 3.66181 4.92747 3.37831C7.302 2.80664 10.1754 1.8208 12.3832 0.174619ZM19.6864 9.67019C19.8542 9.50867 19.9506 9.28752 19.9543 9.05538C19.958 8.82324 19.8689 8.59913 19.7064 8.43235C19.5439 8.26557 19.3214 8.16979 19.0878 8.16607C18.8543 8.16235 18.6288 8.251 18.461 8.41252L9.95823 16.5909L7.34073 14.2272C7.16678 14.079 6.94154 14.004 6.71287 14.0182C6.48419 14.0324 6.2701 14.1347 6.11607 14.3033C5.96203 14.4719 5.8802 14.6935 5.88795 14.9211C5.8957 15.1487 5.99243 15.3644 6.15758 15.5222L9.38543 18.4389C9.55098 18.5885 9.7676 18.6698 9.99129 18.6663C10.215 18.6629 10.4289 18.5749 10.5897 18.4203L19.6864 9.67019Z" fill="#219D80"/>
</svg>
