<svg width="33" height="28" viewBox="0 0 33 28" fill="none" xmlns="http://www.w3.org/2000/svg">
<path d="M32.5838 0.488293V6.72829H30.6638C29.1171 6.72829 27.8905 6.96829 26.9838 7.44829C26.0771 7.92829 25.4105 8.75496 24.9838 9.92829C24.5571 11.0483 24.3438 12.5683 24.3438 14.4883V20.4083L22.0238 15.9283C22.3971 15.6616 22.9305 15.4483 23.6238 15.2883C24.3171 15.075 25.0371 14.9683 25.7838 14.9683C27.5438 14.9683 29.0105 15.5283 30.1838 16.6483C31.3571 17.715 31.9438 19.2083 31.9438 21.1283C31.9438 22.9416 31.3838 24.4883 30.2638 25.7683C29.1438 26.995 27.5438 27.6083 25.4638 27.6083C24.1305 27.6083 22.8771 27.315 21.7038 26.7283C20.5838 26.0883 19.6771 25.0216 18.9838 23.5283C18.2905 21.9816 17.9438 19.875 17.9438 17.2083V15.8483C17.9438 12.0616 18.4505 9.04829 19.4638 6.80829C20.5305 4.56829 22.0505 2.96829 24.0238 2.00829C25.9971 0.994959 28.3971 0.488293 31.2238 0.488293H32.5838ZM14.9038 0.488293L14.9038 6.72829H12.9838C11.4371 6.72829 10.2105 6.96829 9.30379 7.44829C8.39712 7.92829 7.73046 8.75496 7.30379 9.92829C6.87712 11.0483 6.66379 12.5683 6.66379 14.4883V20.4083L4.34379 15.9283C4.71712 15.6616 5.25046 15.4483 5.94379 15.2883C6.63712 15.075 7.35712 14.9683 8.10379 14.9683C9.86379 14.9683 11.3305 15.5283 12.5038 16.6483C13.6771 17.715 14.2638 19.2083 14.2638 21.1283C14.2638 22.9416 13.7038 24.4883 12.5838 25.7683C11.4638 26.995 9.86379 27.6083 7.78379 27.6083C6.45046 27.6083 5.19712 27.315 4.02379 26.7283C2.90379 26.0883 1.99712 25.0216 1.30379 23.5283C0.610456 21.9816 0.263789 19.875 0.263789 17.2083V15.8483C0.263789 12.0616 0.770456 9.04829 1.78379 6.80829C2.85046 4.56829 4.37046 2.96829 6.34379 2.00829C8.31712 0.994959 10.7171 0.488293 13.5438 0.488293H14.9038Z" fill="#00725E"/>
</svg>
