<svg width="32" height="27" viewBox="0 0 32 27" fill="none" xmlns="http://www.w3.org/2000/svg">
<path d="M12.3681 0V2.32875C11.0102 1.77188 9.55419 1.485 8.09816 1.485C5.16973 1.485 2.24131 2.6325 0 4.94437L5.44785 10.5638H7.2638V12.4369C8.67076 13.8881 10.5031 14.6475 12.3517 14.7319V18.5625H7.46012V23.625C7.46012 25.4813 8.93252 27 10.7321 27H27.092C29.8078 27 32 24.7388 32 21.9375V0H12.3681ZM10.5521 10.8169V7.18875H6.82209L5.12065 5.43375C6.0706 5.05561 7.07993 4.86112 8.09816 4.86C10.2904 4.86 12.3354 5.7375 13.8896 7.32375L16.1963 9.70312L15.8691 10.0406C15.4581 10.4687 14.9688 10.8084 14.4297 11.0401C13.8905 11.2719 13.3121 11.391 12.728 11.3906C11.9591 11.3906 11.2065 11.1881 10.5521 10.8169ZM28.728 21.9375C28.728 22.8656 27.9918 23.625 27.092 23.625C26.1922 23.625 25.456 22.8656 25.456 21.9375V18.5625H15.6401V14.1919C16.5726 13.8038 17.4397 13.23 18.1922 12.4538L18.5194 12.1163L23.1493 16.875H25.456V14.4956L15.6401 4.42125V3.375H28.728V21.9375Z" fill="#219D80"/>
</svg>
